<svg width="58" height="58" viewBox="0 0 58 58" fill="none" xmlns="http://www.w3.org/2000/svg">
<g filter="url(#filter0_d_21_174)">
<path d="M46.9272 27.4018C46.9272 38.0832 38.2682 46.7421 27.5869 46.7421C16.9055 46.7421 8.24658 38.0832 8.24658 27.4018C8.24658 16.7205 16.9055 8.06151 27.5869 8.06151C38.2682 8.06151 46.9272 16.7205 46.9272 27.4018Z" fill="url(#paint0_linear_21_174)"/>
<path fill-rule="evenodd" clip-rule="evenodd" d="M23.0742 42.8741C33.7555 42.8741 42.4145 34.2151 42.4145 23.5338C42.4145 12.8524 33.7555 4.19345 23.0742 4.19345C12.3928 4.19345 3.73389 12.8524 3.73389 23.5338C3.73389 34.2151 12.3928 42.8741 23.0742 42.8741ZM9.00538 18.6286C16.8217 10.9859 29.3267 10.9859 37.143 18.6286C37.7158 19.1886 37.7261 20.107 37.166 20.6798C36.606 21.2526 35.6876 21.2629 35.1148 20.7028C28.4259 14.1626 17.7225 14.1626 11.0336 20.7028C10.4608 21.2629 9.54241 21.2526 8.98236 20.6798C8.42227 20.107 8.43261 19.1886 9.00538 18.6286ZM23.0742 18.6987C26.641 18.6987 30.3152 19.9278 32.8215 22.5269C33.3775 23.1035 33.3609 24.0218 32.7842 24.5779C32.2076 25.134 31.2893 25.1173 30.7332 24.5406C28.8879 22.627 26.0347 21.5998 23.0742 21.5997C20.1137 21.5997 17.2604 22.627 15.4152 24.5406C14.8592 25.1173 13.9409 25.134 13.3642 24.5779C12.7875 24.0218 12.7708 23.1036 13.3269 22.5269C15.8332 19.9278 19.5074 18.6987 23.0742 18.6987ZM28.3612 28.994C28.9734 28.4773 29.051 27.5622 28.5344 26.9499C25.7791 23.6844 20.3693 23.6844 17.614 26.9499C17.0974 27.5622 17.175 28.4773 17.7872 28.994C18.3995 29.5105 19.3146 29.433 19.8313 28.8207C21.4275 26.9288 24.7209 26.9288 26.3171 28.8207C26.8338 29.433 27.7489 29.5105 28.3612 28.994ZM21.1402 32.7204C21.1402 33.7885 22.0061 34.6544 23.0742 34.6544C24.1423 34.6544 25.0082 33.7885 25.0082 32.7204C25.0082 31.6522 24.1423 30.7864 23.0742 30.7864C22.0061 30.7864 21.1402 31.6522 21.1402 32.7204Z" fill="white" fill-opacity="0.4"/>
</g>
<defs>
<filter id="filter0_d_21_174" x="0.207899" y="0.667464" width="57.2972" height="56.6526" filterUnits="userSpaceOnUse" color-interpolation-filters="sRGB">
<feFlood flood-opacity="0" result="BackgroundImageFix"/>
<feColorMatrix in="SourceAlpha" type="matrix" values="0 0 0 0 0 0 0 0 0 0 0 0 0 0 0 0 0 0 127 0" result="hardAlpha"/>
<feOffset dx="3.52599" dy="3.52599"/>
<feGaussianBlur stdDeviation="3.52599"/>
<feColorMatrix type="matrix" values="0 0 0 0 0.180392 0 0 0 0 0.764706 0 0 0 0 0.835294 0 0 0 0.4 0"/>
<feBlend mode="normal" in2="BackgroundImageFix" result="effect1_dropShadow_21_174"/>
<feBlend mode="normal" in="SourceGraphic" in2="effect1_dropShadow_21_174" result="shape"/>
</filter>
<linearGradient id="paint0_linear_21_174" x1="16.2729" y1="45.8087" x2="37.2055" y2="3.09677" gradientUnits="userSpaceOnUse">
<stop stop-color="#009EFF"/>
<stop offset="1" stop-color="#78C2F2"/>
</linearGradient>
</defs>
</svg>
