<svg width="56" height="64" viewBox="0 0 56 64" fill="none" xmlns="http://www.w3.org/2000/svg">
<g filter="url(#filter0_d_21_287)">
<path d="M43.8589 20.891C40.748 40.9839 31.1484 49.7892 24.2665 51.9099C24.0881 51.9648 23.9038 51.9648 23.7254 51.9099C16.8435 49.7892 7.24403 40.9839 4.13312 20.891C4.05508 20.387 4.37167 19.901 4.86462 19.77C6.71274 19.2789 11.1138 18.0741 13.998 16.9973C17.4995 15.6901 21.989 13.1607 23.4854 12.2964C23.8025 12.1132 24.1894 12.1132 24.5066 12.2964C26.0029 13.1607 30.4924 15.6901 33.9939 16.9973C36.8781 18.0741 41.2794 19.2789 43.127 19.77C43.6204 19.901 43.9368 20.387 43.8589 20.891Z" fill="url(#paint0_linear_21_287)"/>
<path fill-rule="evenodd" clip-rule="evenodd" d="M24.1452 43.7507C31.0271 41.6302 40.6265 32.8249 43.7374 12.732C43.8155 12.228 43.4989 11.742 43.0059 11.611C41.1578 11.1199 36.7568 9.91514 33.8726 8.83836C30.3711 7.53113 25.8815 5.00175 24.3852 4.13737C24.0681 3.95421 23.6811 3.95421 23.364 4.13737C21.8677 5.00175 17.3782 7.53113 13.8767 8.83836C10.9925 9.91514 6.59142 11.1199 4.74329 11.611C4.25034 11.742 3.93376 12.228 4.01179 12.732C7.12271 32.8249 16.7221 41.6302 23.604 43.7507C23.7825 43.8057 23.9668 43.8057 24.1452 43.7507ZM32.7732 21.2637C33.5617 20.4904 33.574 19.2244 32.8007 18.436C32.0274 17.6476 30.7614 17.6353 29.9729 18.4086L22.7082 25.5336L19.7759 22.6577C18.9874 21.8844 17.7214 21.8967 16.9482 22.6851C16.1749 23.4736 16.1872 24.7396 16.9756 25.5129L21.3081 29.762C22.0857 30.5246 23.3307 30.5246 24.1083 29.762L32.7732 21.2637Z" fill="white" fill-opacity="0.4"/>
</g>
<defs>
<filter id="filter0_d_21_287" x="0" y="0" width="55.8706" height="63.9511" filterUnits="userSpaceOnUse" color-interpolation-filters="sRGB">
<feFlood flood-opacity="0" result="BackgroundImageFix"/>
<feColorMatrix in="SourceAlpha" type="matrix" values="0 0 0 0 0 0 0 0 0 0 0 0 0 0 0 0 0 0 127 0" result="hardAlpha"/>
<feOffset dx="4" dy="4"/>
<feGaussianBlur stdDeviation="4"/>
<feColorMatrix type="matrix" values="0 0 0 0 0.545098 0 0 0 0 0.823529 0 0 0 0 0.192157 0 0 0 0.4 0"/>
<feBlend mode="normal" in2="BackgroundImageFix" result="effect1_dropShadow_21_287"/>
<feBlend mode="normal" in="SourceGraphic" in2="effect1_dropShadow_21_287" result="shape"/>
</filter>
<linearGradient id="paint0_linear_21_287" x1="23.996" y1="12.159" x2="23.996" y2="51.9511" gradientUnits="userSpaceOnUse">
<stop stop-color="#93DF32"/>
<stop offset="1" stop-color="#70BD0D"/>
</linearGradient>
</defs>
</svg>
