<svg width="54" height="46" viewBox="0 0 54 46" fill="none" xmlns="http://www.w3.org/2000/svg">
<path fill-rule="evenodd" clip-rule="evenodd" d="M14.1 0.833328C11.6515 0.833328 9.66666 2.81819 9.66666 5.26666V29.65C9.66666 32.0985 11.6515 34.0833 14.1 34.0833H29.6167V40.7333H22.4125C21.1883 40.7333 20.1958 41.7258 20.1958 42.95C20.1958 44.1742 21.1883 45.1667 22.4125 45.1667H41.2542C42.4784 45.1667 43.4708 44.1742 43.4708 42.95C43.4708 41.7258 42.4784 40.7333 41.2542 40.7333H34.05V34.0833H49.5667C52.015 34.0833 54 32.0985 54 29.65V5.26666C54 2.81819 52.015 0.833328 49.5667 0.833328H14.1Z" fill="url(#paint0_linear_21_333)"/>
<path d="M0.799988 9.7C0.799988 7.25152 2.78485 5.26666 5.23332 5.26666H40.7C43.1485 5.26666 45.1333 7.25152 45.1333 9.7V31.8667C45.1333 34.3151 43.1485 36.3 40.7 36.3H5.23332C2.78485 36.3 0.799988 34.3151 0.799988 31.8667V9.7Z" fill="white" fill-opacity="0.4"/>
<path d="M5.23334 17.4583C5.23334 16.8462 5.72954 16.35 6.34167 16.35H30.725C31.3371 16.35 31.8333 16.8462 31.8333 17.4583V19.675C31.8333 20.2871 31.3371 20.7833 30.725 20.7833H6.34167C5.72954 20.7833 5.23334 20.2871 5.23334 19.675V17.4583Z" fill="white" fill-opacity="0.6"/>
<path d="M5.23334 24.1083C5.23334 23.4962 5.72954 23 6.34167 23H17.425C18.0371 23 18.5333 23.4962 18.5333 24.1083V26.325C18.5333 26.9371 18.0371 27.4333 17.425 27.4333H6.34167C5.72954 27.4333 5.23334 26.9371 5.23334 26.325V24.1083Z" fill="white" fill-opacity="0.6"/>
<path d="M5.23334 10.8083C5.23334 10.1962 5.72954 9.7 6.34167 9.7H39.5917C40.2038 9.7 40.7 10.1962 40.7 10.8083V13.025C40.7 13.6371 40.2038 14.1333 39.5917 14.1333H6.34167C5.72954 14.1333 5.23334 13.6371 5.23334 13.025V10.8083Z" fill="white" fill-opacity="0.6"/>
<defs>
<linearGradient id="paint0_linear_21_333" x1="31.8333" y1="0.833328" x2="31.8333" y2="45.1667" gradientUnits="userSpaceOnUse">
<stop stop-color="#FFBC0E"/>
<stop offset="1" stop-color="#FF7C1E"/>
</linearGradient>
</defs>
</svg>
